HIERARCHY
ROOT Hips
{
	OFFSET 0.000000 8.830580 0.000000
	CHANNELS 6 Xposition Yposition Zposition Zrotation Yrotation Xrotation 
	JOINT Spine
	{
		OFFSET 0.000000 0.010000 0.000000
		CHANNELS 3 Zrotation Yrotation Xrotation
		JOINT Spine1
		{
			OFFSET 0.000000 2.459130 0.000000
			CHANNELS 3 Zrotation Yrotation Xrotation
			JOINT Neck
			{
				OFFSET 0.000000 2.484630 0.000000
				CHANNELS 3 Zrotation Yrotation Xrotation
				JOINT Head_virtual
				{
					OFFSET 0.000000 0.000000 0.000000
					CHANNELS 3 Zrotation Yrotation Xrotation
					JOINT Head
					{
						OFFSET 0.000000 0.927525 0.000000
						CHANNELS 3 Zrotation Yrotation Xrotation
						End Site
						{
							OFFSET 0.000000 0.000000 0.000000
						}
					}
				}
				JOINT LeftUpArm_virtual
				{
					OFFSET 0.000000 0.000000 0.000000
					CHANNELS 3 Zrotation Yrotation Xrotation
					JOINT LeftUpArm
					{
						OFFSET 1.248820 0.000000 0.000000
						CHANNELS 3 Zrotation Yrotation Xrotation
						JOINT LeftForeArm
						{
							OFFSET 2.597580 0.000000 0.000000
							CHANNELS 3 Zrotation Yrotation Xrotation
							JOINT LeftHand
							{
								OFFSET 2.455420 0.000000 0.000000
								CHANNELS 3 Zrotation Yrotation Xrotation
								End Site
								{
									OFFSET 0.000000 0.000000 0.000000
								}
							}
						}
					}
				}
				JOINT RightUpArm_virtual
				{
					OFFSET -0.000000 -0.000000 -0.000000
					CHANNELS 3 Zrotation Yrotation Xrotation
					JOINT RightUpArm
					{
						OFFSET -1.248820 -0.000000 -0.000000
						CHANNELS 3 Zrotation Yrotation Xrotation
						JOINT RightForeArm
						{
							OFFSET -2.597580 -0.000000 -0.000000
							CHANNELS 3 Zrotation Yrotation Xrotation
							JOINT RightHand
							{
								OFFSET -2.455420 -0.000000 -0.000000
								CHANNELS 3 Zrotation Yrotation Xrotation
								End Site
								{
									OFFSET 0.000000 0.000000 0.000000
								}
							}
						}
					}
				}
			}
		}
	}
	JOINT LeftUpLeg
	{
		OFFSET 1.271939 0.000000 0.000000
		CHANNELS 3 Zrotation Yrotation Xrotation
		JOINT LeftLowLeg
		{
			OFFSET 0.000000 -4.342910 0.000000
			CHANNELS 3 Zrotation Yrotation Xrotation
			JOINT LeftFoot
			{
				OFFSET 0.000000 -4.487670 0.000000
				CHANNELS 3 Zrotation Yrotation Xrotation
				JOINT LeftToeBase
				{
					OFFSET 0.000000 0.000000 1.515070
					CHANNELS 3 Zrotation Yrotation Xrotation
					End Site
					{
						OFFSET 0.000000 0.000000 0.000000
					}
				}
			}
		}
	}
	JOINT RightUpLeg
	{
		OFFSET -1.271939 0.000000 0.000000
		CHANNELS 3 Zrotation Yrotation Xrotation
		JOINT RightLowLeg
		{
			OFFSET 0.000000 -4.342910 0.000000
			CHANNELS 3 Zrotation Yrotation Xrotation
			JOINT RightFoot
			{
				OFFSET 0.000000 -4.487670 0.000000
				CHANNELS 3 Zrotation Yrotation Xrotation
				JOINT RightToeBase
				{
					OFFSET 0.000000 0.000000 1.515070
					CHANNELS 3 Zrotation Yrotation Xrotation
					End Site
					{
						OFFSET 0.000000 0.000000 0.000000
					}
				}
			}
		}
	}
}
MOTION
Frames: 11
Frame Time: 0.041667
-16.262998 9.281166 42.398298 -173.890411 1.220183 177.255649 2.073810 -1.780838 -18.346676 8.776815 0.120006 30.484375 0.000000 0.000000 0.000000 -25.782991 10.624185 -12.564914 -2.468788 21.481072 -66.566778 -35.096699 -2.494380 -8.824420 -35.687500 2.047760 38.441200 0.000000 -28.830700 0.000000 7.674030 6.631090 0.047431 25.551399 -1.108260 -2.905670 37.645802 3.781070 25.060900 0.000000 26.805000 0.000000 -6.229270 0.307266 -6.915740 7.642059 16.427657 9.071192 0.000000 0.000000 6.130620 -7.356924 8.531560 5.559237 0.000000 0.000000 -10.242230 8.756061 12.502503 7.288224 0.000000 0.000000 7.552790 15.047303 -25.596070 7.856055 0.000000 0.000000 -11.247900 
-16.257009 9.282860 42.397315 -173.874037 1.285723 177.193322 1.964170 -1.986658 -18.365933 8.824391 0.001787 30.698900 0.000000 0.000000 0.000000 -23.542721 8.672291 -12.028970 -0.948263 20.267611 -65.790328 -34.988701 -2.558190 -9.011150 -35.737301 2.043680 38.378300 0.000000 -29.008801 0.000000 7.614680 6.694030 0.081449 25.529301 -1.043560 -2.843230 37.660500 3.967260 24.991699 0.000000 26.759001 0.000000 -6.361290 0.467871 -7.047870 7.676825 16.320395 8.936869 0.000000 0.000000 6.553270 -7.415843 8.715578 5.432982 0.000000 0.000000 -10.281110 8.838031 12.675218 7.277849 0.000000 0.000000 7.724190 15.139589 -25.650064 7.829935 0.000000 0.000000 -11.307400 
-16.250343 9.284656 42.397564 -173.853699 1.338009 177.151525 1.767690 -2.314033 -18.380724 9.085881 -0.080082 30.916234 0.000000 0.000000 0.000000 -21.115656 6.444732 -11.388333 0.318624 18.985592 -65.136888 -35.045502 -2.596580 -8.947570 -35.682098 1.817330 38.280701 0.000000 -29.189899 0.000000 7.621730 6.610770 0.208135 25.381100 -0.995281 -2.863240 37.716801 4.100260 24.942400 0.000000 26.754900 0.000000 -6.368230 0.477285 -6.924840 7.719291 16.248788 8.777159 0.000000 0.000000 6.962460 -7.472954 8.858098 5.316551 0.000000 0.000000 -10.327850 8.933889 12.919087 7.233013 0.000000 0.000000 7.909950 15.251667 -25.768398 7.786915 0.000000 0.000000 -11.356460 
-16.242960 9.286239 42.400341 -173.813884 1.382536 177.145434 1.596512 -2.586751 -18.422346 9.267774 -0.170717 31.164754 0.000000 0.000000 0.000000 -18.352411 3.938936 -10.795582 1.624893 17.618364 -64.586686 -35.072399 -2.660210 -8.987940 -35.567902 1.614930 38.221199 0.000000 -29.400700 0.000000 7.677140 6.552110 0.430396 25.291000 -0.970714 -2.982650 37.768002 4.235440 25.066601 0.000000 26.765400 0.000000 -6.307560 0.360506 -6.845850 7.757870 16.139552 8.553919 0.000000 0.000000 7.386820 -7.503325 9.053705 5.181873 0.000000 0.000000 -10.344640 9.019574 13.003317 7.138293 0.000000 0.000000 8.079270 15.284505 -25.796391 7.802594 0.000000 0.000000 -11.398650 
-16.235292 9.287619 42.403910 -173.795006 1.449822 177.161635 1.460014 -2.764658 -18.565898 9.277205 -0.295576 31.536168 0.000000 0.000000 0.000000 -15.692312 1.422188 -10.596706 3.463937 15.987948 -63.910751 -34.985802 -2.736150 -9.086360 -35.474499 1.393460 38.090801 0.000000 -29.598700 0.000000 7.727880 6.456570 0.498361 25.148899 -0.813784 -3.133870 37.989498 4.264600 25.125401 0.000000 26.729601 0.000000 -6.290240 0.455384 -6.689160 7.775432 16.070354 8.319224 0.000000 0.000000 7.796000 -7.540630 9.235482 5.066525 0.000000 0.000000 -10.382460 9.063909 13.044328 6.992544 0.000000 0.000000 8.268910 15.259354 -25.780087 7.846883 0.000000 0.000000 -11.460290 
-16.226528 9.288999 42.402644 -173.774508 1.508324 177.064812 1.343045 -2.850799 -18.569019 9.163954 -0.370905 31.730542 0.000000 0.000000 0.000000 -12.537477 -1.306216 -10.126272 4.757501 14.672370 -63.573858 -34.909401 -2.824970 -8.971360 -35.268902 1.171640 37.792599 0.000000 -29.807699 0.000000 7.870370 6.368540 0.393445 25.197000 -0.799951 -3.119730 38.096699 4.364500 25.208900 0.000000 26.707500 0.000000 -6.171390 0.358699 -6.676010 7.853335 16.028354 8.287916 0.000000 0.000000 8.088130 -7.564208 9.359373 5.005096 0.000000 0.000000 -10.461460 9.131161 12.909265 7.028610 0.000000 0.000000 8.384260 15.143691 -25.674982 7.937256 0.000000 0.000000 -11.503710 
-16.219888 9.290209 42.401893 -173.805844 1.505609 177.018746 1.266770 -2.835238 -18.681813 8.810632 -0.495676 32.002641 0.000000 0.000000 0.000000 -9.193796 -4.066140 -9.909729 6.080677 13.417118 -63.314179 -34.716900 -2.926870 -8.969450 -35.069302 0.974834 37.511299 0.000000 -29.995600 0.000000 8.142950 6.334950 0.784108 25.321600 -0.771655 -3.205960 38.232201 4.444580 25.439899 0.000000 26.674900 0.000000 -6.092050 0.307813 -6.600510 7.848119 15.943907 8.205102 0.000000 0.000000 8.333670 -7.610956 9.462290 4.977693 0.000000 0.000000 -10.492770 9.107001 12.644687 7.035539 0.000000 0.000000 8.441180 15.003215 -25.515903 8.021818 0.000000 0.000000 -11.447290 
-16.215887 9.291163 42.406520 -173.845962 1.318687 176.988768 1.303964 -2.708986 -18.772261 8.046687 -0.761723 32.287501 0.000000 0.000000 0.000000 -5.825676 -6.639459 -9.856804 7.443846 12.394810 -63.290038 -34.430000 -3.047040 -9.144870 -34.755600 0.829996 37.208698 0.000000 -30.198700 0.000000 8.279310 6.209870 0.581636 25.580799 -0.655131 -3.275680 38.432899 4.535220 25.629601 0.000000 26.570700 0.000000 -5.989520 0.330649 -6.510750 7.747177 15.521322 7.961520 0.000000 0.000000 8.685410 -7.631859 9.710446 4.914480 0.000000 0.000000 -10.557130 9.030053 12.162392 7.008605 0.000000 0.000000 8.459600 14.862697 -25.305234 8.121114 0.000000 0.000000 -11.444730 
-16.210996 9.290296 42.421536 -173.890317 1.597754 177.067615 1.461643 -2.170105 -18.801490 7.101255 -0.845291 32.528478 0.000000 0.000000 0.000000 -2.368351 -9.034322 -10.011458 8.568071 11.648865 -63.384144 -34.026501 -3.196300 -9.383700 -34.482700 0.661875 36.780300 0.000000 -30.329100 0.000000 8.404900 6.062510 1.183790 26.024700 -0.490252 -3.488170 38.524502 4.586550 25.989500 0.000000 26.551100 0.000000 -5.855010 0.218160 -6.568720 7.678329 15.627453 7.716741 0.000000 0.000000 8.973530 -7.659955 9.889804 4.811159 0.000000 0.000000 -10.529220 8.977433 12.365229 6.715557 0.000000 0.000000 8.713480 14.906512 -25.209932 8.034123 0.000000 0.000000 -11.453210 
-16.207734 9.290462 42.423739 -173.902641 1.617803 177.061182 1.728681 -1.579927 -18.975789 5.845210 -1.091513 32.908026 0.000000 0.000000 0.000000 0.967123 -11.085530 -10.156711 9.702550 11.170022 -63.402483 -33.427898 -3.309620 -9.616670 -34.275200 0.526009 36.339699 0.000000 -30.438400 0.000000 8.682980 6.070790 0.962450 26.525801 -0.383776 -3.538300 38.733200 4.654270 26.189301 0.000000 26.470301 0.000000 -5.820210 0.496050 -6.646320 7.662506 15.549256 7.662891 0.000000 0.000000 9.068640 -7.585166 10.009214 4.832827 0.000000 0.000000 -10.648400 8.981817 12.362864 6.714759 0.000000 0.000000 8.701870 14.894202 -25.206221 8.031075 0.000000 0.000000 -11.407900 
-16.206667 9.290258 42.426273 -173.937656 1.689014 177.023526 2.101503 -0.794491 -19.171215 4.307630 -1.371076 33.398915 0.000000 0.000000 0.000000 4.296539 -12.941485 -10.552784 10.651033 10.842537 -63.311935 -32.687302 -3.394280 -9.754860 -34.102299 0.291206 35.727501 0.000000 -30.544001 0.000000 8.814810 5.996990 0.877048 27.172300 -0.212808 -3.697210 38.868198 4.676220 26.588900 0.000000 26.520901 0.000000 -5.684790 0.424415 -6.596200 7.646891 15.629470 7.727105 0.000000 0.000000 9.023100 -7.554460 10.019670 4.874522 0.000000 0.000000 -10.658660 8.960276 12.421566 6.752025 0.000000 0.000000 8.687110 14.916155 -25.196516 7.993818 0.000000 0.000000 -11.385370 
